# xmcd CD Database Entry
#
# Track frame offsets:
# 150
# 14632
# 38163
# 57896
# 79671
# 93106
# 108400
# 131232
# 153191
# 175101
# 195104
# 213044
# 230435
#
# Disc length: 3558 seconds
#
# Revision: 4
# Processed by: cddbd v1.4b42PL1 Copyright (c) Steve Scherf et al.
# Submitted via: tcd 2.0b
#
DISCID=980de40d
DTITLE=Maria Woodford/Brighter Path
DYEAR=1900
DGENRE=
TTITLE0=2:00AM
TTITLE1=December
TTITLE2=Perfect Stranger
TTITLE3=I'm Slipping
TTITLE4=End
TTITLE5=Thunderbird
TTITLE6=Tell You Why
TTITLE7=Postcards From Prison
TTITLE8=Tired
TTITLE9=Superstardust
TTITLE10=Here I Am
TTITLE11=Brighter Path
TTITLE12=West Virginia
EXTD=
EXTT0=
EXTT1=
EXTT2=
EXTT3=
EXTT4=
EXTT5=
EXTT6=
EXTT7=
EXTT8=
EXTT9=
EXTT10=
EXTT11=
EXTT12=
PLAYORDER=
